<?xml version="1.0" standalone="no"?>
<!DOCTYPE svg PUBLIC "-//W3C//DTD SVG 20010904//EN"
 "http://www.w3.org/TR/2001/REC-SVG-20010904/DTD/svg10.dtd">
<svg version="1.0" xmlns="http://www.w3.org/2000/svg"
 width="512.000000pt" height="512.000000pt" viewBox="0 0 512.000000 512.000000"
 preserveAspectRatio="xMidYMid meet">
<metadata>
Created by potrace 1.14, written by Peter Selinger 2001-2017
</metadata>
<g transform="translate(0.000000,512.000000) scale(0.100000,-0.100000)"
fill="#000000" stroke="none">
<path d="M1530 2705 c0 -1953 2 -2205 15 -2205 13 0 15 252 15 2205 0 1953 -2
2205 -15 2205 -13 0 -15 -252 -15 -2205z"/>
<path d="M3048 4890 c-112 -59 -175 -261 -148 -473 21 -167 64 -240 179 -301
38 -20 79 -48 89 -61 63 -80 17 -215 -73 -215 -52 0 -137 68 -174 138 -25 47
-31 21 -31 -127 l0 -149 33 -28 c112 -95 258 -83 331 26 56 85 77 175 77 330
-1 220 -49 313 -200 390 -74 37 -93 60 -98 117 -8 94 52 157 127 134 38 -11
116 -81 126 -113 15 -50 24 -5 24 126 l0 145 -35 27 c-72 55 -162 68 -227 34z"/>
<path d="M1890 4255 l0 -625 130 0 c88 0 141 4 164 14 46 19 92 79 118 156 20
56 23 85 23 215 0 135 -3 155 -23 201 -13 29 -36 64 -52 79 l-29 28 20 25 c34
44 53 129 53 242 0 138 -19 204 -74 254 l-40 36 -145 0 -145 0 0 -625z m223
397 c58 -6 63 -222 7 -252 -10 -6 -37 -10 -59 -10 l-41 0 0 134 0 134 38 -2
c20 -2 45 -3 55 -4z m37 -492 c26 -14 40 -63 40 -142 0 -76 -18 -131 -48 -147
-12 -6 -43 -11 -71 -11 l-51 0 0 155 0 155 56 0 c30 0 64 -4 74 -10z"/>
<path d="M2430 4255 l0 -625 190 0 190 0 0 120 0 120 -124 0 -124 0 -1 155 -1
155 115 0 115 0 0 123 0 123 -102 -1 c-57 0 -108 1 -115 3 -8 2 -12 37 -12
108 l-1 104 125 0 125 0 0 120 0 120 -190 0 -190 0 0 -625z"/>
<path d="M3370 4760 l0 -120 85 0 85 0 -1 -487 c0 -269 0 -496 0 -505 1 -15
11 -18 66 -18 l65 0 0 505 0 505 80 0 80 0 0 120 0 120 -230 0 -230 0 0 -120z"/>
<path d="M540 4678 c-143 -26 -282 -152 -380 -345 -231 -457 -207 -1173 52
-1570 346 -530 868 -213 974 591 19 145 14 423 -10 556 -94 510 -351 821 -636
768z m212 -76 c58 -28 154 -113 193 -169 41 -58 96 -248 121 -416 19 -123 21
-379 4 -497 -44 -321 -144 -556 -299 -703 -158 -151 -342 -162 -506 -29 -73
58 -110 123 -160 277 -53 166 -76 319 -77 515 -1 180 10 282 47 437 74 309
241 548 428 609 69 23 175 13 249 -24z"/>
<path d="M1890 2706 l0 -626 143 0 c135 0 144 1 179 25 46 31 93 125 109 219
15 90 6 266 -16 329 -10 27 -32 63 -49 80 l-31 31 28 55 c75 153 51 415 -46
485 -25 18 -46 21 -173 24 l-144 4 0 -626z m246 373 c16 -17 19 -37 19 -110 0
-106 -14 -128 -89 -136 l-46 -4 0 135 0 136 48 0 c37 0 54 -5 68 -21z m28
-488 c18 -18 22 -36 24 -110 6 -140 -22 -178 -130 -180 l-38 0 0 161 0 161 61
-6 c44 -4 68 -11 83 -26z"/>
<path d="M2470 2708 l-96 -623 64 -3 c36 -2 66 -1 68 1 3 2 12 59 21 126 l17
121 97 0 96 0 7 -47 c3 -27 11 -83 17 -125 l11 -78 70 0 70 0 -6 33 c-6 35
-186 1206 -186 1213 0 2 -35 4 -78 4 l-77 0 -95 -622z m203 65 c15 -109 27
-201 27 -205 0 -5 -27 -8 -60 -8 -33 0 -60 3 -60 8 -1 25 55 402 60 402 3 0
18 -89 33 -197z"/>
<path d="M2983 2705 l0 -625 188 0 189 0 0 120 0 120 -120 0 -120 0 0 505 0
505 -69 0 -68 0 0 -625z"/>
<path d="M3440 2705 l0 -625 188 0 187 0 0 118 -1 117 -121 5 -121 5 0 500 0
500 -66 3 -66 3 0 -626z"/>
<path d="M470 2416 c0 -2 -4 -26 -10 -54 -8 -46 -7 -54 21 -105 16 -30 39 -90
51 -133 21 -76 22 -100 26 -643 2 -337 7 -572 13 -583 13 -25 55 -23 73 4 14
20 16 90 16 566 0 606 3 636 66 772 31 65 34 81 29 122 -4 27 -9 48 -12 48 -3
0 -30 -7 -60 -16 -61 -18 -140 -13 -186 11 -15 8 -27 12 -27 11z"/>
<path d="M3685 1786 c-57 -25 -110 -99 -146 -205 -64 -185 -73 -581 -19 -798
29 -114 85 -221 136 -256 48 -34 122 -39 174 -12 35 18 84 81 111 143 105 241
102 754 -7 991 -56 125 -154 178 -249 137z m119 -256 c91 -109 102 -574 17
-740 -56 -109 -138 -61 -176 102 -33 145 -28 427 11 557 31 106 97 142 148 81z"/>
<path d="M4807 1779 c-108 -57 -171 -257 -147 -469 19 -168 68 -248 189 -309
32 -17 68 -42 79 -56 44 -56 36 -155 -15 -195 -56 -44 -139 -10 -208 86 -22
30 -43 54 -47 54 -4 0 -8 -67 -8 -149 l0 -149 39 -31 c114 -91 251 -80 324 26
60 87 90 248 76 412 -14 158 -63 239 -187 304 -94 50 -106 65 -107 137 0 71
24 111 77 124 31 8 43 5 81 -17 26 -16 57 -46 74 -72 15 -24 31 -44 36 -45 4
0 7 66 7 148 l0 147 -35 24 c-78 53 -163 64 -228 30z"/>
<path d="M1890 1145 l0 -625 60 0 60 0 2 417 3 418 43 -250 c24 -138 46 -259
49 -271 4 -17 12 -21 45 -20 25 1 44 7 49 16 5 8 29 128 53 265 l44 250 1
-412 1 -413 65 0 65 0 0 625 0 625 -77 0 -78 0 -55 -300 c-30 -165 -57 -300
-60 -300 -3 0 -30 134 -60 298 l-55 297 -77 3 -78 3 0 -626z"/>
<path d="M2695 1748 c-7 -31 -185 -1199 -185 -1215 0 -9 19 -13 64 -13 75 0
69 -8 86 125 18 149 6 135 114 135 l94 0 5 -27 c3 -16 11 -74 18 -131 l13
-102 68 0 c58 0 68 3 68 18 0 9 -42 289 -93 622 l-93 605 -77 3 c-73 3 -77 2
-82 -20z m139 -715 l5 -33 -65 0 c-35 0 -64 2 -64 4 0 2 14 97 30 211 17 114
30 212 31 219 1 6 14 -74 29 -179 16 -104 31 -205 34 -222z"/>
<path d="M3140 1655 l0 -115 55 0 c37 0 55 -4 56 -12 0 -7 0 -165 0 -350 -1
-286 -4 -344 -17 -378 -25 -62 -77 -79 -127 -40 -14 11 -28 20 -31 20 -3 0 -6
-58 -6 -129 l0 -130 56 -11 c31 -7 71 -9 90 -5 45 8 97 55 124 110 44 90 49
168 50 678 l0 477 -125 0 -125 0 0 -115z"/>
<path d="M4120 1146 l0 -626 65 0 65 0 0 230 0 230 33 0 33 0 70 -227 70 -228
83 -3 c65 -2 82 0 79 10 -3 7 -42 128 -87 269 l-83 255 25 38 c14 20 36 67 49
104 20 58 23 87 23 217 0 177 -16 241 -75 308 l-38 42 -156 3 -156 3 0 -625z
m261 368 c49 -52 34 -265 -21 -294 -10 -6 -39 -10 -64 -10 l-46 0 0 165 0 165
53 0 c45 0 58 -4 78 -26z"/>
</g>
</svg>
